<svg width="60" height="60" viewBox="0 0 60 60" fill="none" xmlns="http://www.w3.org/2000/svg">
<rect width="60" height="60" rx="30" fill="#F6E5DE"/>
<path d="M28.1949 42.1463V31.0588L18.7079 25.4319V36.5193L28.1949 42.1463ZM31.8051 42.1463L41.2921 36.5193V25.4319L31.8051 31.0588V42.1463ZM28.146 46.4816L16.854 39.8372C16.2729 39.4916 15.8186 39.0321 15.491 38.4585C15.1637 37.885 15 37.2525 15 36.561V23.439C15 22.7475 15.1637 22.115 15.491 21.5415C15.8186 20.9679 16.2729 20.5084 16.854 20.1628L28.146 13.5184C28.7271 13.1728 29.3451 13 30 13C30.6549 13 31.2729 13.1728 31.854 13.5184L43.146 20.1628C43.7271 20.5084 44.1814 20.9679 44.509 21.5415C44.8363 22.115 45 22.7475 45 23.439V36.561C45 37.2525 44.8363 37.885 44.509 38.4585C44.1814 39.0321 43.7271 39.4916 43.146 39.8372L31.854 46.4816C31.2729 46.8272 30.6549 47 30 47C29.3451 47 28.7271 46.8272 28.146 46.4816ZM36.4901 24.014L39.3648 22.3284L30 16.7949L27.0948 18.5118L36.4901 24.014ZM30 27.8723L32.915 26.155L23.5409 20.6215L20.6352 22.3284L30 27.8723Z" fill="url(#paint0_linear_15_256)"/>
<defs>
<linearGradient id="paint0_linear_15_256" x1="30" y1="13" x2="30" y2="47" gradientUnits="userSpaceOnUse">
<stop stop-color="#FF550C"/>
<stop offset="1" stop-color="#E94601"/>
</linearGradient>
</defs>
</svg>
