<svg width="16" height="16" viewBox="0 0 16 16" fill="none" xmlns="http://www.w3.org/2000/svg">
<mask id="mask0_134_1437" style="mask-type:alpha" maskUnits="userSpaceOnUse" x="0" y="0" width="16" height="16">
<rect width="16" height="16" fill="#D9D9D9"/>
</mask>
<g mask="url(#mask0_134_1437)">
<path d="M2.6667 13.3333V4.73325L1.3667 1.89992L2.5667 1.33325L4.13337 4.69992H11.8667L13.4334 1.33325L14.6334 1.89992L13.3334 4.73325V13.3333H2.6667ZM6.6667 8.66659H9.33337C9.52225 8.66659 9.68059 8.6027 9.80837 8.47492C9.93614 8.34714 10 8.18881 10 7.99992C10 7.81103 9.93614 7.6527 9.80837 7.52492C9.68059 7.39714 9.52225 7.33325 9.33337 7.33325H6.6667C6.47781 7.33325 6.31948 7.39714 6.1917 7.52492C6.06392 7.6527 6.00003 7.81103 6.00003 7.99992C6.00003 8.18881 6.06392 8.34714 6.1917 8.47492C6.31948 8.6027 6.47781 8.66659 6.6667 8.66659ZM4.00003 11.9999H12V6.03325H4.00003V11.9999Z" fill="#7D7D7D"/>
</g>
</svg>
