<svg xmlns="http://www.w3.org/2000/svg" xmlns:xlink="http://www.w3.org/1999/xlink" width="500" zoomAndPan="magnify" viewBox="0 0 375 374.999991" height="500" preserveAspectRatio="xMidYMid meet" version="1.0"><defs><clipPath id="bbc02fafb7"><path d="M 2.871094 2.871094 L 372.128906 2.871094 L 372.128906 372.128906 L 2.871094 372.128906 Z M 2.871094 2.871094 " clip-rule="nonzero"/></clipPath><clipPath id="6006739666"><path d="M 187.5 2.871094 C 85.53125 2.871094 2.871094 85.53125 2.871094 187.5 C 2.871094 289.46875 85.53125 372.128906 187.5 372.128906 C 289.46875 372.128906 372.128906 289.46875 372.128906 187.5 C 372.128906 85.53125 289.46875 2.871094 187.5 2.871094 Z M 187.5 2.871094 " clip-rule="nonzero"/></clipPath><clipPath id="f43b8bcae4"><path d="M 0.871094 0.871094 L 370.128906 0.871094 L 370.128906 370.128906 L 0.871094 370.128906 Z M 0.871094 0.871094 " clip-rule="nonzero"/></clipPath><clipPath id="cdf829f616"><path d="M 185.5 0.871094 C 83.53125 0.871094 0.871094 83.53125 0.871094 185.5 C 0.871094 287.46875 83.53125 370.128906 185.5 370.128906 C 287.46875 370.128906 370.128906 287.46875 370.128906 185.5 C 370.128906 83.53125 287.46875 0.871094 185.5 0.871094 Z M 185.5 0.871094 " clip-rule="nonzero"/></clipPath><clipPath id="22fa394af1"><rect x="0" width="371" y="0" height="371"/></clipPath><clipPath id="f595dc6e9b"><path d="M 55 74 L 320.410156 74 L 320.410156 302 L 55 302 Z M 55 74 " clip-rule="nonzero"/></clipPath><clipPath id="460ffdef8b"><path d="M 1 0.398438 L 265 0.398438 L 265 227.921875 L 1 227.921875 Z M 1 0.398438 " clip-rule="nonzero"/></clipPath><clipPath id="ba27a339d1"><rect x="0" width="266" y="0" height="228"/></clipPath></defs><g clip-path="url(#bbc02fafb7)"><g clip-path="url(#6006739666)"><g transform="matrix(1, 0, 0, 1, 2, 2)"><g clip-path="url(#22fa394af1)"><g clip-path="url(#f43b8bcae4)"><g clip-path="url(#cdf829f616)"><path fill="#ff550c" d="M 0.871094 0.871094 L 370.128906 0.871094 L 370.128906 370.128906 L 0.871094 370.128906 Z M 0.871094 0.871094 " fill-opacity="1" fill-rule="nonzero"/></g></g></g></g></g></g><g clip-path="url(#f595dc6e9b)"><g transform="matrix(1, 0, 0, 1, 55, 74)"><g clip-path="url(#ba27a339d1)"><g clip-path="url(#460ffdef8b)"><path fill="#ffffff" d="M 80.949219 119.914062 C 89.921875 119.914062 97.191406 112.644531 97.191406 103.675781 C 97.191406 94.707031 89.921875 87.433594 80.949219 87.433594 C 71.980469 87.433594 64.707031 94.707031 64.707031 103.675781 C 64.707031 112.644531 71.980469 119.914062 80.949219 119.914062 Z M 135.085938 119.914062 C 144.054688 119.914062 151.328125 112.644531 151.328125 103.675781 C 151.328125 94.707031 144.054688 87.433594 135.085938 87.433594 C 126.117188 87.433594 118.84375 94.707031 118.84375 103.675781 C 118.84375 112.644531 126.117188 119.914062 135.085938 119.914062 Z M 189.222656 119.914062 C 198.195312 119.914062 205.464844 112.644531 205.464844 103.675781 C 205.464844 94.707031 198.195312 87.433594 189.222656 87.433594 C 180.253906 87.433594 172.980469 94.707031 172.980469 103.675781 C 172.980469 112.644531 180.253906 119.914062 189.222656 119.914062 Z M 130.832031 0.773438 C 203.644531 -0.660156 263.578125 44.207031 264.695312 100.988281 C 265.085938 120.730469 258.308594 139.308594 246.25 155.210938 L 246.253906 155.210938 C 225.515625 181.855469 248.148438 227.660156 248.148438 227.660156 L 181.320312 198.878906 C 166.921875 203.425781 151.28125 206.078125 134.882812 206.402344 C 62.070312 207.835938 2.136719 162.96875 1.019531 106.1875 C -0.101562 49.402344 58.019531 2.210938 130.832031 0.773438 " fill-opacity="1" fill-rule="evenodd"/></g></g></g></g></svg>