<svg width="60" height="60" viewBox="0 0 60 60" fill="none" xmlns="http://www.w3.org/2000/svg">
<rect width="60" height="60" rx="30" fill="#F6E5DE"/>
<mask id="mask0_15_273" style="mask-type:alpha" maskUnits="userSpaceOnUse" x="10" y="13" width="40" height="34">
<rect x="10.5" y="13" width="39" height="34" fill="#D9D9D9"/>
</mask>
<g mask="url(#mask0_15_273)">
<path d="M30 25.5488L24.6896 20.2384L30 14.928L35.3104 20.2384L30 25.5488ZM13.3101 42.2387V36.1696C13.3101 35.3099 13.6073 34.5892 14.2015 34.0075C14.7958 33.4259 15.5101 33.1351 16.3446 33.1351H21.3137C21.8194 33.1351 22.2999 33.2616 22.7551 33.5144C23.2103 33.7673 23.5769 34.1087 23.8551 34.5386C24.5884 35.5248 25.4925 36.2961 26.5672 36.8524C27.6419 37.4087 28.7862 37.6869 30 37.6869C31.2391 37.6869 32.396 37.4087 33.4707 36.8524C34.5455 36.2961 35.4369 35.5248 36.1449 34.5386C36.4736 34.1087 36.8593 33.7673 37.3018 33.5144C37.7444 33.2616 38.2059 33.1351 38.6863 33.1351H43.6554C44.5151 33.1351 45.2358 33.4259 45.8175 34.0075C46.3991 34.5892 46.6899 35.3099 46.6899 36.1696V42.2387H36.069V38.7869C35.184 39.4191 34.2294 39.8996 33.2052 40.2283C32.1811 40.5571 31.1127 40.7214 30 40.7214C28.9126 40.7214 27.8505 40.5507 26.8137 40.2094C25.777 39.868 24.816 39.3812 23.931 38.749V42.2387H13.3101ZM17.8619 31.6179C16.5975 31.6179 15.5228 31.1753 14.6377 30.2903C13.7527 29.4052 13.3101 28.3305 13.3101 27.0661C13.3101 25.7764 13.7527 24.6954 14.6377 23.8229C15.5228 22.9505 16.5975 22.5143 17.8619 22.5143C19.1516 22.5143 20.2326 22.9505 21.1051 23.8229C21.9775 24.6954 22.4137 25.7764 22.4137 27.0661C22.4137 28.3305 21.9775 29.4052 21.1051 30.2903C20.2326 31.1753 19.1516 31.6179 17.8619 31.6179ZM42.1381 31.6179C40.8737 31.6179 39.799 31.1753 38.9139 30.2903C38.0288 29.4052 37.5863 28.3305 37.5863 27.0661C37.5863 25.7764 38.0288 24.6954 38.9139 23.8229C39.799 22.9505 40.8737 22.5143 42.1381 22.5143C43.4278 22.5143 44.5088 22.9505 45.3812 23.8229C46.2537 24.6954 46.6899 25.7764 46.6899 27.0661C46.6899 28.3305 46.2537 29.4052 45.3812 30.2903C44.5088 31.1753 43.4278 31.6179 42.1381 31.6179Z" fill="url(#paint0_linear_15_273)"/>
</g>
<defs>
<linearGradient id="paint0_linear_15_273" x1="30" y1="14.928" x2="30" y2="42.2387" gradientUnits="userSpaceOnUse">
<stop stop-color="#FF550C"/>
<stop offset="1" stop-color="#E94601"/>
</linearGradient>
</defs>
</svg>
