<svg width="20" height="20" viewBox="0 0 20 20" fill="none" xmlns="http://www.w3.org/2000/svg">
<mask id="mask0_70_685" style="mask-type:alpha" maskUnits="userSpaceOnUse" x="0" y="0" width="20" height="20">
<rect width="20" height="20" fill="#D9D9D9"/>
</mask>
<g mask="url(#mask0_70_685)">
<path d="M11.6663 17.5002V14.9377L16.2705 10.3543C16.3955 10.2293 16.5344 10.1391 16.6872 10.0835C16.84 10.0279 16.9927 10.0002 17.1455 10.0002C17.3122 10.0002 17.4719 10.0314 17.6247 10.0939C17.7775 10.1564 17.9163 10.2502 18.0413 10.3752L18.8122 11.146C18.9233 11.271 19.0101 11.4099 19.0726 11.5627C19.1351 11.7154 19.1663 11.8682 19.1663 12.021C19.1663 12.1738 19.1386 12.33 19.083 12.4897C19.0275 12.6495 18.9372 12.7918 18.8122 12.9168L14.2288 17.5002H11.6663ZM3.33301 16.6668V14.3335C3.33301 13.8613 3.45454 13.4272 3.69759 13.0314C3.94065 12.6356 4.26356 12.3335 4.66634 12.1252C5.52745 11.6946 6.40245 11.3717 7.29134 11.1564C8.18023 10.9411 9.08301 10.8335 9.99967 10.8335C10.5136 10.8335 11.0205 10.8647 11.5205 10.9272C12.0205 10.9897 12.5205 11.0904 13.0205 11.2293L9.99967 14.2502V16.6668H3.33301ZM17.1455 12.8335L17.9163 12.021L17.1455 11.2502L16.3538 12.0418L17.1455 12.8335ZM9.99967 10.0002C9.08301 10.0002 8.29829 9.67377 7.64551 9.021C6.99273 8.36822 6.66634 7.5835 6.66634 6.66683C6.66634 5.75016 6.99273 4.96544 7.64551 4.31266C8.29829 3.65989 9.08301 3.3335 9.99967 3.3335C10.9163 3.3335 11.7011 3.65989 12.3538 4.31266C13.0066 4.96544 13.333 5.75016 13.333 6.66683C13.333 7.5835 13.0066 8.36822 12.3538 9.021C11.7011 9.67377 10.9163 10.0002 9.99967 10.0002Z" fill="white"/>
</g>
</svg>
