<svg width="90" height="90" viewBox="0 0 90 90" fill="none" xmlns="http://www.w3.org/2000/svg">
<rect width="90" height="90" rx="45" fill="#032B43"/>
<mask id="mask0_70_650" style="mask-type:alpha" maskUnits="userSpaceOnUse" x="5" y="5" width="80" height="80">
<rect x="5.1875" y="5.1875" width="79.625" height="79.625" fill="#D9D9D9"/>
</mask>
<g mask="url(#mask0_70_650)">
<path d="M45.0002 44.9999C41.3507 44.9999 38.2265 43.7005 35.6276 41.1016C33.0288 38.5027 31.7293 35.3786 31.7293 31.7291C31.7293 28.0796 33.0288 24.9554 35.6276 22.3566C38.2265 19.7577 41.3507 18.4583 45.0002 18.4583C48.6496 18.4583 51.7738 19.7577 54.3727 22.3566C56.9716 24.9554 58.271 28.0796 58.271 31.7291C58.271 35.3786 56.9716 38.5027 54.3727 41.1016C51.7738 43.7005 48.6496 44.9999 45.0002 44.9999ZM18.4585 71.5416V62.252C18.4585 60.372 18.9423 58.644 19.91 57.0681C20.8777 55.4922 22.1633 54.2895 23.7668 53.4601C27.1951 51.7459 30.6787 50.4603 34.2176 49.6032C37.7565 48.7462 41.3507 48.3176 45.0002 48.3176C48.6496 48.3176 52.2438 48.7462 55.7827 49.6032C59.3216 50.4603 62.8052 51.7459 66.2335 53.4601C67.8371 54.2895 69.1227 55.4922 70.0903 57.0681C71.058 58.644 71.5418 60.372 71.5418 62.252V71.5416H18.4585Z" fill="white"/>
</g>
</svg>
