<svg width="60" height="60" viewBox="0 0 60 60" fill="none" xmlns="http://www.w3.org/2000/svg">
<rect width="60" height="60" rx="30" fill="#F6E5DE"/>
<mask id="mask0_15_279" style="mask-type:alpha" maskUnits="userSpaceOnUse" x="15" y="13" width="30" height="34">
<rect x="15" y="13" width="30" height="34" fill="#D9D9D9"/>
</mask>
<g mask="url(#mask0_15_279)">
<path d="M25.0305 40.5499C22.7798 39.5111 20.9512 37.9422 19.5445 35.843C18.1379 33.7439 17.4346 31.3742 17.4346 28.734C17.4346 28.1714 17.4616 27.6195 17.5157 27.0785C17.5698 26.5375 17.6618 26.0073 17.7916 25.4879L16.2984 26.3644L15 24.1246L21.2001 20.5539L24.7708 26.7215L22.4985 28.0199L20.7456 24.9686C20.5076 25.5529 20.329 26.1588 20.21 26.7864C20.091 27.414 20.0315 28.0632 20.0315 28.734C20.0315 30.8332 20.6049 32.743 21.7519 34.4634C22.8989 36.1838 24.4245 37.4552 26.3289 38.2776L25.0305 40.5499ZM34.9635 24.8063V22.2094H38.5018C37.5063 20.9759 36.3053 20.0183 34.8986 19.3366C33.492 18.6549 31.9988 18.314 30.419 18.314C29.2288 18.314 28.1034 18.498 27.043 18.8659C25.9827 19.2338 25.0088 19.7532 24.1216 20.424L22.8231 18.1517C23.9051 17.3943 25.0846 16.7992 26.3614 16.3664C27.6382 15.9336 28.9907 15.7172 30.419 15.7172C32.1286 15.7172 33.7625 16.0364 35.3206 16.6748C36.8787 17.3132 38.2746 18.2383 39.5081 19.4502V17.6648H42.105V24.8063H34.9635ZM34.1196 44.2829L27.9195 40.7122L31.4902 34.5446L33.73 35.843L31.8797 39.0242C34.4333 38.6563 36.5595 37.4985 38.2583 35.5509C39.9571 33.6032 40.8065 31.3201 40.8065 28.7016C40.8065 28.4635 40.8011 28.2417 40.7903 28.0361C40.7795 27.8305 40.7524 27.6195 40.7091 27.4031H43.3385C43.3601 27.6195 43.3764 27.8305 43.3872 28.0361C43.398 28.2417 43.4034 28.4635 43.4034 28.7016C43.4034 31.6231 42.5324 34.2362 40.7903 36.5409C39.0482 38.8457 36.7814 40.3984 33.9897 41.1991L35.418 42.0431L34.1196 44.2829Z" fill="url(#paint0_linear_15_279)"/>
</g>
<defs>
<linearGradient id="paint0_linear_15_279" x1="29.2017" y1="15.7172" x2="29.2017" y2="44.2829" gradientUnits="userSpaceOnUse">
<stop stop-color="#FF550C"/>
<stop offset="1" stop-color="#E94601"/>
</linearGradient>
</defs>
</svg>
