<svg width="16" height="16" viewBox="0 0 16 16" fill="none" xmlns="http://www.w3.org/2000/svg">
<mask id="mask0_134_922" style="mask-type:alpha" maskUnits="userSpaceOnUse" x="0" y="0" width="16" height="16">
<rect width="16" height="16" fill="#D9D9D9"/>
</mask>
<g mask="url(#mask0_134_922)">
<path d="M7.99992 14.6666C6.82214 14.6666 5.86103 14.4805 5.11659 14.1083C4.37214 13.736 3.99992 13.2555 3.99992 12.6666C3.99992 12.3999 4.08047 12.1527 4.24159 11.9249C4.4027 11.6971 4.6277 11.4999 4.91659 11.3333L5.96659 12.3166C5.86659 12.361 5.75825 12.411 5.64159 12.4666C5.52492 12.5221 5.43325 12.5888 5.36659 12.6666C5.51103 12.8444 5.84436 12.9999 6.36659 13.1333C6.88881 13.2666 7.43325 13.3333 7.99992 13.3333C8.56659 13.3333 9.11381 13.2666 9.64159 13.1333C10.1694 12.9999 10.5055 12.8444 10.6499 12.6666C10.5721 12.5777 10.4721 12.5055 10.3499 12.4499C10.2277 12.3944 10.111 12.3444 9.99992 12.2999L11.0333 11.2999C11.3444 11.4777 11.5833 11.6805 11.7499 11.9083C11.9166 12.136 11.9999 12.3888 11.9999 12.6666C11.9999 13.2555 11.6277 13.736 10.8833 14.1083C10.1388 14.4805 9.1777 14.6666 7.99992 14.6666ZM8.01658 10.9999C9.11658 10.1888 9.94436 9.37492 10.4999 8.55825C11.0555 7.74159 11.3333 6.92214 11.3333 6.09992C11.3333 4.96659 10.9721 4.11103 10.2499 3.53325C9.5277 2.95547 8.7777 2.66659 7.99992 2.66659C7.22214 2.66659 6.47214 2.95547 5.74992 3.53325C5.0277 4.11103 4.66659 4.96659 4.66659 6.09992C4.66659 6.84436 4.93881 7.61936 5.48325 8.42492C6.0277 9.23047 6.87214 10.0888 8.01658 10.9999ZM7.99992 12.6666C6.43325 11.511 5.26381 10.3888 4.49159 9.29992C3.71936 8.21103 3.33325 7.14436 3.33325 6.09992C3.33325 5.31103 3.47492 4.61936 3.75825 4.02492C4.04159 3.43047 4.40547 2.93325 4.84992 2.53325C5.29436 2.13325 5.79436 1.83325 6.34992 1.63325C6.90547 1.43325 7.45547 1.33325 7.99992 1.33325C8.54436 1.33325 9.09436 1.43325 9.64992 1.63325C10.2055 1.83325 10.7055 2.13325 11.1499 2.53325C11.5944 2.93325 11.9583 3.43047 12.2416 4.02492C12.5249 4.61936 12.6666 5.31103 12.6666 6.09992C12.6666 7.14436 12.2805 8.21103 11.5083 9.29992C10.736 10.3888 9.56659 11.511 7.99992 12.6666ZM7.99992 7.33325C8.36658 7.33325 8.68047 7.2027 8.94159 6.94159C9.2027 6.68047 9.33325 6.36658 9.33325 5.99992C9.33325 5.63325 9.2027 5.31936 8.94159 5.05825C8.68047 4.79714 8.36658 4.66658 7.99992 4.66658C7.63325 4.66658 7.31936 4.79714 7.05825 5.05825C6.79714 5.31936 6.66658 5.63325 6.66658 5.99992C6.66658 6.36658 6.79714 6.68047 7.05825 6.94159C7.31936 7.2027 7.63325 7.33325 7.99992 7.33325Z" fill="#7D7D7D"/>
</g>
</svg>
