<svg width="142" height="142" viewBox="0 0 142 142" fill="none" xmlns="http://www.w3.org/2000/svg">
<mask id="mask0_98_1484" style="mask-type:alpha" maskUnits="userSpaceOnUse" x="0" y="0" width="142" height="142">
<rect x="0.5" y="0.5" width="141" height="141" fill="#D9D9D9" stroke="white"/>
</mask>
<g mask="url(#mask0_98_1484)">
<path d="M31.4043 21.2085H75.2793V29.0835H31.4043C30.755 29.0835 30.1861 29.2968 29.7412 29.7417C29.2963 30.1866 29.083 30.7554 29.083 31.4048V110.596C29.0831 111.245 29.2964 111.813 29.7412 112.258C30.1861 112.703 30.755 112.917 31.4043 112.917H110.596C111.245 112.916 111.813 112.703 112.258 112.258C112.703 111.813 112.916 111.245 112.916 110.596V66.7212H120.791V110.596C120.791 113.455 119.807 115.857 117.832 117.832L117.831 117.833C115.856 119.807 113.455 120.791 110.596 120.792H31.4043C28.5451 120.792 26.1428 119.807 24.168 117.833C22.1931 115.858 21.2081 113.455 21.208 110.596V31.4048C21.208 28.5454 22.193 26.1434 24.168 24.1685C26.1429 22.1935 28.5449 21.2085 31.4043 21.2085ZM103.223 98.2622H38.7803L53.2568 79.1011L65.4297 94.5776L65.8271 95.0825L66.2188 94.5737L83.5664 72.0532L103.223 98.2622ZM108.958 21.2085V33.0415H120.791V40.9165H108.958V52.7505H101.083V40.9165H89.25V33.0415H101.083V21.2085H108.958Z" fill="#D9D9D9" stroke="white"/>
</g>
</svg>
