<svg xmlns="http://www.w3.org/2000/svg" xmlns:xlink="http://www.w3.org/1999/xlink" width="1000" zoomAndPan="magnify" viewBox="0 0 750 299.999988" height="400" preserveAspectRatio="xMidYMid meet" version="1.0"><defs><g/><clipPath id="bc1c36ac18"><path d="M 180.925781 60 L 318.960938 60 L 318.960938 233.621094 L 180.925781 233.621094 Z M 180.925781 60 " clip-rule="nonzero"/></clipPath><clipPath id="f8b63c5ea9"><path d="M 249.945312 60 C 211.828125 60 180.925781 98.761719 180.925781 146.574219 C 180.925781 194.386719 211.828125 233.148438 249.945312 233.148438 C 288.0625 233.148438 318.960938 194.386719 318.960938 146.574219 C 318.960938 98.761719 288.0625 60 249.945312 60 Z M 249.945312 60 " clip-rule="nonzero"/></clipPath><clipPath id="b1a934030a"><path d="M 0.925781 0 L 138.960938 0 L 138.960938 173.28125 L 0.925781 173.28125 Z M 0.925781 0 " clip-rule="nonzero"/></clipPath><clipPath id="e1f9ce6fa3"><path d="M 69.945312 0 C 31.828125 0 0.925781 38.761719 0.925781 86.574219 C 0.925781 134.386719 31.828125 173.148438 69.945312 173.148438 C 108.0625 173.148438 138.960938 134.386719 138.960938 86.574219 C 138.960938 38.761719 108.0625 0 69.945312 0 Z M 69.945312 0 " clip-rule="nonzero"/></clipPath><clipPath id="829dccecd3"><rect x="0" width="139" y="0" height="174"/></clipPath><clipPath id="9339745c8a"><path d="M 333.3125 60 L 471.347656 60 L 471.347656 233.621094 L 333.3125 233.621094 Z M 333.3125 60 " clip-rule="nonzero"/></clipPath><clipPath id="31d263cae2"><path d="M 402.328125 60 C 364.210938 60 333.3125 98.761719 333.3125 146.574219 C 333.3125 194.386719 364.210938 233.148438 402.328125 233.148438 C 440.445312 233.148438 471.347656 194.386719 471.347656 146.574219 C 471.347656 98.761719 440.445312 60 402.328125 60 Z M 402.328125 60 " clip-rule="nonzero"/></clipPath><clipPath id="44fbfd72c5"><path d="M 0.3125 0 L 138.347656 0 L 138.347656 173.28125 L 0.3125 173.28125 Z M 0.3125 0 " clip-rule="nonzero"/></clipPath><clipPath id="057e8bec10"><path d="M 69.328125 0 C 31.210938 0 0.3125 38.761719 0.3125 86.574219 C 0.3125 134.386719 31.210938 173.148438 69.328125 173.148438 C 107.445312 173.148438 138.347656 134.386719 138.347656 86.574219 C 138.347656 38.761719 107.445312 0 69.328125 0 Z M 69.328125 0 " clip-rule="nonzero"/></clipPath><clipPath id="5b6c76b7c5"><rect x="0" width="139" y="0" height="174"/></clipPath><clipPath id="4c030dc566"><path d="M 223.941406 65.988281 L 318.921875 65.988281 L 318.921875 204 L 223.941406 204 Z M 223.941406 65.988281 " clip-rule="nonzero"/></clipPath><clipPath id="75bfd13c9e"><path d="M 271.429688 65.988281 C 245.203125 65.988281 223.941406 96.855469 223.941406 134.925781 C 223.941406 173 245.203125 203.867188 271.429688 203.867188 C 297.660156 203.867188 318.921875 173 318.921875 134.925781 C 318.921875 96.855469 297.660156 65.988281 271.429688 65.988281 Z M 271.429688 65.988281 " clip-rule="nonzero"/></clipPath><clipPath id="1f1c085261"><path d="M 0.941406 0.988281 L 95.921875 0.988281 L 95.921875 139 L 0.941406 139 Z M 0.941406 0.988281 " clip-rule="nonzero"/></clipPath><clipPath id="b5bde138ad"><path d="M 48.429688 0.988281 C 22.203125 0.988281 0.941406 31.855469 0.941406 69.925781 C 0.941406 108 22.203125 138.867188 48.429688 138.867188 C 74.660156 138.867188 95.921875 108 95.921875 69.925781 C 95.921875 31.855469 74.660156 0.988281 48.429688 0.988281 Z M 48.429688 0.988281 " clip-rule="nonzero"/></clipPath><clipPath id="f02d35b7ee"><rect x="0" width="96" y="0" height="139"/></clipPath><clipPath id="46da6b8474"><path d="M 370.109375 65.988281 L 465.089844 65.988281 L 465.089844 204 L 370.109375 204 Z M 370.109375 65.988281 " clip-rule="nonzero"/></clipPath><clipPath id="0f8e60b186"><path d="M 417.597656 65.988281 C 391.371094 65.988281 370.109375 96.855469 370.109375 134.925781 C 370.109375 173 391.371094 203.867188 417.597656 203.867188 C 443.824219 203.867188 465.089844 173 465.089844 134.925781 C 465.089844 96.855469 443.824219 65.988281 417.597656 65.988281 Z M 417.597656 65.988281 " clip-rule="nonzero"/></clipPath><clipPath id="63cbf2859f"><path d="M 0.109375 0.988281 L 95.089844 0.988281 L 95.089844 139 L 0.109375 139 Z M 0.109375 0.988281 " clip-rule="nonzero"/></clipPath><clipPath id="52fb51a584"><path d="M 47.597656 0.988281 C 21.371094 0.988281 0.109375 31.855469 0.109375 69.925781 C 0.109375 108 21.371094 138.867188 47.597656 138.867188 C 73.824219 138.867188 95.089844 108 95.089844 69.925781 C 95.089844 31.855469 73.824219 0.988281 47.597656 0.988281 Z M 47.597656 0.988281 " clip-rule="nonzero"/></clipPath><clipPath id="59e0cb04ab"><rect x="0" width="96" y="0" height="139"/></clipPath><clipPath id="f66cc15125"><rect x="0" width="484" y="0" height="300"/></clipPath><clipPath id="68e245555c"><rect x="0" width="335" y="0" height="300"/></clipPath><clipPath id="fc32a24b1b"><path d="M 479 0 L 739.921875 0 L 739.921875 300 L 479 300 Z M 479 0 " clip-rule="nonzero"/></clipPath><clipPath id="0c0e42b9f9"><rect x="0" width="261" y="0" height="300"/></clipPath><clipPath id="0b2b82150a"><path d="M 223.941406 85.230469 L 260.484375 85.230469 L 260.484375 121.773438 L 223.941406 121.773438 Z M 223.941406 85.230469 " clip-rule="nonzero"/></clipPath><clipPath id="a36e927d90"><path d="M 242.210938 85.230469 C 232.121094 85.230469 223.941406 93.410156 223.941406 103.5 C 223.941406 113.59375 232.121094 121.773438 242.210938 121.773438 C 252.304688 121.773438 260.484375 113.59375 260.484375 103.5 C 260.484375 93.410156 252.304688 85.230469 242.210938 85.230469 Z M 242.210938 85.230469 " clip-rule="nonzero"/></clipPath><clipPath id="ece19152ad"><path d="M 0.941406 0.230469 L 37.484375 0.230469 L 37.484375 36.773438 L 0.941406 36.773438 Z M 0.941406 0.230469 " clip-rule="nonzero"/></clipPath><clipPath id="f74a6f2d0c"><path d="M 19.210938 0.230469 C 9.121094 0.230469 0.941406 8.410156 0.941406 18.5 C 0.941406 28.59375 9.121094 36.773438 19.210938 36.773438 C 29.304688 36.773438 37.484375 28.59375 37.484375 18.5 C 37.484375 8.410156 29.304688 0.230469 19.210938 0.230469 Z M 19.210938 0.230469 " clip-rule="nonzero"/></clipPath><clipPath id="21342274d1"><rect x="0" width="38" y="0" height="37"/></clipPath><clipPath id="09968e6afd"><path d="M 370.109375 85.230469 L 406.648438 85.230469 L 406.648438 121.773438 L 370.109375 121.773438 Z M 370.109375 85.230469 " clip-rule="nonzero"/></clipPath><clipPath id="e4b02bbc2d"><path d="M 388.378906 85.230469 C 378.289062 85.230469 370.109375 93.410156 370.109375 103.5 C 370.109375 113.59375 378.289062 121.773438 388.378906 121.773438 C 398.46875 121.773438 406.648438 113.59375 406.648438 103.5 C 406.648438 93.410156 398.46875 85.230469 388.378906 85.230469 Z M 388.378906 85.230469 " clip-rule="nonzero"/></clipPath><clipPath id="67d64552bd"><path d="M 0.109375 0.230469 L 36.648438 0.230469 L 36.648438 36.773438 L 0.109375 36.773438 Z M 0.109375 0.230469 " clip-rule="nonzero"/></clipPath><clipPath id="f67b4865b5"><path d="M 18.378906 0.230469 C 8.289062 0.230469 0.109375 8.410156 0.109375 18.5 C 0.109375 28.59375 8.289062 36.773438 18.378906 36.773438 C 28.46875 36.773438 36.648438 28.59375 36.648438 18.5 C 36.648438 8.410156 28.46875 0.230469 18.378906 0.230469 Z M 18.378906 0.230469 " clip-rule="nonzero"/></clipPath><clipPath id="cfb59949d5"><rect x="0" width="37" y="0" height="37"/></clipPath><clipPath id="75e24dea0f"><rect x="0" width="740" y="0" height="300"/></clipPath></defs><g clip-path="url(#bc1c36ac18)"><g clip-path="url(#f8b63c5ea9)"><g transform="matrix(1, 0, 0, 1, 180, 60)"><g clip-path="url(#829dccecd3)"><g clip-path="url(#b1a934030a)"><g clip-path="url(#e1f9ce6fa3)"><path fill="#ffffff" d="M 0.925781 0 L 138.960938 0 L 138.960938 173.082031 L 0.925781 173.082031 Z M 0.925781 0 " fill-opacity="1" fill-rule="nonzero"/></g></g></g></g></g></g><g clip-path="url(#9339745c8a)"><g clip-path="url(#31d263cae2)"><g transform="matrix(1, 0, 0, 1, 333, 60)"><g clip-path="url(#5b6c76b7c5)"><g clip-path="url(#44fbfd72c5)"><g clip-path="url(#057e8bec10)"><path fill="#ffffff" d="M 0.3125 0 L 138.347656 0 L 138.347656 173.082031 L 0.3125 173.082031 Z M 0.3125 0 " fill-opacity="1" fill-rule="nonzero"/></g></g></g></g></g></g><g transform="matrix(1, 0, 0, 1, 0, 0)"><g clip-path="url(#75e24dea0f)"><g clip-path="url(#4c030dc566)"><g clip-path="url(#75bfd13c9e)"><g transform="matrix(1, 0, 0, 1, 223, 65)"><g clip-path="url(#f02d35b7ee)"><g clip-path="url(#1f1c085261)"><g clip-path="url(#b5bde138ad)"><path fill="#000000" d="M 0.941406 0.988281 L 95.921875 0.988281 L 95.921875 139.007812 L 0.941406 139.007812 Z M 0.941406 0.988281 " fill-opacity="1" fill-rule="nonzero"/></g></g></g></g></g></g><g clip-path="url(#46da6b8474)"><g clip-path="url(#0f8e60b186)"><g transform="matrix(1, 0, 0, 1, 370, 65)"><g clip-path="url(#59e0cb04ab)"><g clip-path="url(#63cbf2859f)"><g clip-path="url(#52fb51a584)"><path fill="#000000" d="M 0.109375 0.988281 L 95.089844 0.988281 L 95.089844 139.007812 L 0.109375 139.007812 Z M 0.109375 0.988281 " fill-opacity="1" fill-rule="nonzero"/></g></g></g></g></g></g><g transform="matrix(1, 0, 0, 1, 0, 0)"><g clip-path="url(#f66cc15125)"><g fill="#000000" fill-opacity="1"><g transform="translate(0.000015, 236.877896)"><g><path d="M 73.671875 -196.5625 C 92.765625 -196.5625 108.054688 -193.6875 119.546875 -187.9375 C 131.035156 -182.1875 139.835938 -174.585938 145.953125 -165.140625 C 152.066406 -155.691406 156.097656 -144.941406 158.046875 -132.890625 C 159.992188 -120.847656 160.96875 -108.613281 160.96875 -96.1875 C 160.96875 -82.65625 159.253906 -69.863281 155.828125 -57.8125 C 152.398438 -45.769531 147.117188 -35.253906 139.984375 -26.265625 C 132.847656 -17.273438 123.71875 -10.140625 112.59375 -4.859375 C 101.476562 0.421875 88.226562 3.0625 72.84375 3.0625 C 60.601562 3.0625 50.820312 2.179688 43.5 0.421875 C 36.1875 -1.335938 30.535156 -3.976562 26.546875 -7.5 C 22.566406 -11.019531 19.925781 -15.46875 18.625 -20.84375 C 17.332031 -26.21875 16.6875 -32.519531 16.6875 -39.75 L 16.6875 -144.296875 C 16.6875 -152.265625 17.378906 -159.488281 18.765625 -165.96875 C 20.148438 -172.457031 22.878906 -177.972656 26.953125 -182.515625 C 31.035156 -187.054688 36.832031 -190.53125 44.34375 -192.9375 C 51.851562 -195.351562 61.628906 -196.5625 73.671875 -196.5625 Z M 74.78125 -24.75 C 86.269531 -24.75 95.769531 -26.832031 103.28125 -31 C 110.789062 -35.164062 116.769531 -40.675781 121.21875 -47.53125 C 125.664062 -54.394531 128.769531 -62.179688 130.53125 -70.890625 C 132.289062 -79.597656 133.171875 -88.492188 133.171875 -97.578125 C 133.171875 -105.921875 132.519531 -114.304688 131.21875 -122.734375 C 129.925781 -131.171875 127.238281 -138.816406 123.15625 -145.671875 C 119.082031 -152.535156 113.242188 -158.097656 105.640625 -162.359375 C 98.046875 -166.617188 87.945312 -168.75 75.34375 -168.75 C 63.851562 -168.75 55.882812 -167.082031 51.4375 -163.75 C 46.988281 -160.414062 44.765625 -155.316406 44.765625 -148.453125 L 44.765625 -41.984375 C 44.765625 -36.234375 46.847656 -31.921875 51.015625 -29.046875 C 55.179688 -26.179688 63.101562 -24.75 74.78125 -24.75 Z M 74.78125 -24.75 "/></g></g></g><g fill="#000000" fill-opacity="1"><g transform="translate(154.859885, 236.877896)"><g/></g></g><g fill="#000000" fill-opacity="1"><g transform="translate(195.72718, 236.877896)"><g/></g></g><g fill="#000000" fill-opacity="1"><g transform="translate(236.594475, 236.877896)"><g/></g></g><g fill="#000000" fill-opacity="1"><g transform="translate(277.461771, 236.877896)"><g/></g></g><g fill="#000000" fill-opacity="1"><g transform="translate(318.329066, 236.877896)"><g/></g></g><g fill="#000000" fill-opacity="1"><g transform="translate(359.196361, 236.877896)"><g/></g></g><g fill="#000000" fill-opacity="1"><g transform="translate(400.063657, 236.877896)"><g/></g></g><g fill="#000000" fill-opacity="1"><g transform="translate(440.930952, 236.877896)"><g/></g></g></g></g><g transform="matrix(1, 0, 0, 1, 157, 0)"><g clip-path="url(#68e245555c)"><g fill="#000000" fill-opacity="1"><g transform="translate(0.758049, 236.877896)"><g><path d="M 91.1875 2.78125 C 80.070312 2.78125 69.644531 0.554688 59.90625 -3.890625 C 50.175781 -8.335938 41.695312 -14.773438 34.46875 -23.203125 C 27.238281 -31.640625 21.539062 -41.972656 17.375 -54.203125 C 13.207031 -66.441406 11.125 -80.347656 11.125 -95.921875 C 11.125 -110.554688 12.929688 -123.988281 16.546875 -136.21875 C 20.160156 -148.457031 25.535156 -159.023438 32.671875 -167.921875 C 39.804688 -176.816406 48.65625 -183.71875 59.21875 -188.625 C 69.78125 -193.539062 82.015625 -196 95.921875 -196 C 107.222656 -196 117.96875 -193.957031 128.15625 -189.875 C 138.351562 -185.800781 147.296875 -179.6875 154.984375 -171.53125 C 162.679688 -163.375 168.753906 -153.179688 173.203125 -140.953125 C 177.648438 -128.722656 179.875 -114.453125 179.875 -98.140625 C 179.875 -84.609375 178.066406 -71.722656 174.453125 -59.484375 C 170.835938 -47.253906 165.367188 -36.550781 158.046875 -27.375 C 150.722656 -18.207031 141.5 -10.890625 130.375 -5.421875 C 119.257812 0.046875 106.195312 2.78125 91.1875 2.78125 Z M 91.75 -23.359375 C 101.9375 -23.359375 110.828125 -25.441406 118.421875 -29.609375 C 126.023438 -33.773438 132.328125 -39.285156 137.328125 -46.140625 C 142.335938 -53.003906 146.046875 -60.929688 148.453125 -69.921875 C 150.867188 -78.910156 152.078125 -88.128906 152.078125 -97.578125 C 152.078125 -109.078125 150.546875 -119.316406 147.484375 -128.296875 C 144.429688 -137.285156 140.304688 -144.835938 135.109375 -150.953125 C 129.921875 -157.078125 123.898438 -161.757812 117.046875 -165 C 110.191406 -168.25 102.867188 -169.875 95.078125 -169.875 C 85.816406 -169.875 77.707031 -167.925781 70.75 -164.03125 C 63.800781 -160.132812 57.960938 -154.847656 53.234375 -148.171875 C 48.515625 -141.503906 44.945312 -133.675781 42.53125 -124.6875 C 40.125 -115.695312 38.921875 -106.109375 38.921875 -95.921875 C 38.921875 -84.984375 40.3125 -75.019531 43.09375 -66.03125 C 45.875 -57.039062 49.625 -49.394531 54.34375 -43.09375 C 59.070312 -36.789062 64.679688 -31.925781 71.171875 -28.5 C 77.660156 -25.070312 84.519531 -23.359375 91.75 -23.359375 Z M 91.75 -23.359375 "/></g></g></g><g fill="#000000" fill-opacity="1"><g transform="translate(150.882743, 236.877896)"><g><path d="M 91.1875 2.78125 C 80.070312 2.78125 69.644531 0.554688 59.90625 -3.890625 C 50.175781 -8.335938 41.695312 -14.773438 34.46875 -23.203125 C 27.238281 -31.640625 21.539062 -41.972656 17.375 -54.203125 C 13.207031 -66.441406 11.125 -80.347656 11.125 -95.921875 C 11.125 -110.554688 12.929688 -123.988281 16.546875 -136.21875 C 20.160156 -148.457031 25.535156 -159.023438 32.671875 -167.921875 C 39.804688 -176.816406 48.65625 -183.71875 59.21875 -188.625 C 69.78125 -193.539062 82.015625 -196 95.921875 -196 C 107.222656 -196 117.96875 -193.957031 128.15625 -189.875 C 138.351562 -185.800781 147.296875 -179.6875 154.984375 -171.53125 C 162.679688 -163.375 168.753906 -153.179688 173.203125 -140.953125 C 177.648438 -128.722656 179.875 -114.453125 179.875 -98.140625 C 179.875 -84.609375 178.066406 -71.722656 174.453125 -59.484375 C 170.835938 -47.253906 165.367188 -36.550781 158.046875 -27.375 C 150.722656 -18.207031 141.5 -10.890625 130.375 -5.421875 C 119.257812 0.046875 106.195312 2.78125 91.1875 2.78125 Z M 91.75 -23.359375 C 101.9375 -23.359375 110.828125 -25.441406 118.421875 -29.609375 C 126.023438 -33.773438 132.328125 -39.285156 137.328125 -46.140625 C 142.335938 -53.003906 146.046875 -60.929688 148.453125 -69.921875 C 150.867188 -78.910156 152.078125 -88.128906 152.078125 -97.578125 C 152.078125 -109.078125 150.546875 -119.316406 147.484375 -128.296875 C 144.429688 -137.285156 140.304688 -144.835938 135.109375 -150.953125 C 129.921875 -157.078125 123.898438 -161.757812 117.046875 -165 C 110.191406 -168.25 102.867188 -169.875 95.078125 -169.875 C 85.816406 -169.875 77.707031 -167.925781 70.75 -164.03125 C 63.800781 -160.132812 57.960938 -154.847656 53.234375 -148.171875 C 48.515625 -141.503906 44.945312 -133.675781 42.53125 -124.6875 C 40.125 -115.695312 38.921875 -106.109375 38.921875 -95.921875 C 38.921875 -84.984375 40.3125 -75.019531 43.09375 -66.03125 C 45.875 -57.039062 49.625 -49.394531 54.34375 -43.09375 C 59.070312 -36.789062 64.679688 -31.925781 71.171875 -28.5 C 77.660156 -25.070312 84.519531 -23.359375 91.75 -23.359375 Z M 91.75 -23.359375 "/></g></g></g></g></g><g clip-path="url(#fc32a24b1b)"><g transform="matrix(1, 0, 0, 1, 479, 0)"><g clip-path="url(#0c0e42b9f9)"><g fill="#000000" fill-opacity="1"><g transform="translate(0.25645, 236.877896)"><g><path d="M 44.484375 -77.5625 C 44.484375 -71.632812 44.484375 -66.398438 44.484375 -61.859375 C 44.484375 -57.316406 44.4375 -53.003906 44.34375 -48.921875 C 44.25 -44.847656 44.109375 -40.769531 43.921875 -36.6875 C 43.742188 -32.613281 43.5625 -28.078125 43.375 -23.078125 C 56.15625 -24.554688 66.160156 -25.757812 73.390625 -26.6875 C 80.617188 -27.613281 86.316406 -28.351562 90.484375 -28.90625 C 94.660156 -29.46875 97.90625 -29.835938 100.21875 -30.015625 C 102.539062 -30.203125 105.273438 -30.296875 108.421875 -30.296875 C 116.578125 -30.296875 120.65625 -26.3125 120.65625 -18.34375 C 120.65625 -15.195312 119.03125 -12.507812 115.78125 -10.28125 C 112.539062 -8.0625 108.460938 -6.160156 103.546875 -4.578125 C 98.640625 -3.003906 93.175781 -1.707031 87.15625 -0.6875 C 81.132812 0.320312 75.296875 1.054688 69.640625 1.515625 C 63.984375 1.984375 58.882812 2.3125 54.34375 2.5 C 49.8125 2.6875 46.617188 2.78125 44.765625 2.78125 C 38.085938 2.78125 32.894531 2.363281 29.1875 1.53125 C 25.476562 0.695312 22.695312 -1.800781 20.84375 -5.96875 C 19 -10.144531 17.84375 -16.492188 17.375 -25.015625 C 16.914062 -33.546875 16.6875 -45.59375 16.6875 -61.15625 C 16.6875 -76.175781 16.6875 -89.523438 16.6875 -101.203125 C 16.6875 -112.878906 16.773438 -123.347656 16.953125 -132.609375 C 17.140625 -141.878906 17.28125 -150.128906 17.375 -157.359375 C 17.46875 -164.585938 17.703125 -171.164062 18.078125 -177.09375 C 18.441406 -184.695312 19.734375 -189.65625 21.953125 -191.96875 C 24.179688 -194.28125 26.960938 -195.4375 30.296875 -195.4375 C 32.148438 -195.4375 33.769531 -195.296875 35.15625 -195.015625 C 36.550781 -194.742188 37.804688 -193.957031 38.921875 -192.65625 C 40.035156 -191.363281 40.914062 -189.507812 41.5625 -187.09375 C 42.207031 -184.6875 42.625 -181.257812 42.8125 -176.8125 C 43.550781 -160.507812 44.015625 -144.382812 44.203125 -128.4375 C 44.390625 -112.5 44.484375 -95.539062 44.484375 -77.5625 Z M 44.484375 -77.5625 "/></g></g></g><g fill="#000000" fill-opacity="1"><g transform="translate(109.235941, 236.877896)"><g><path d="M 18.34375 -42.265625 C 17.976562 -48.191406 17.609375 -56.25 17.234375 -66.4375 C 16.867188 -76.632812 16.6875 -87.109375 16.6875 -97.859375 C 16.6875 -103.972656 16.726562 -110.320312 16.8125 -116.90625 C 16.90625 -123.488281 17.046875 -130.207031 17.234375 -137.0625 C 17.609375 -150.78125 18.488281 -161.53125 19.875 -169.3125 C 21.269531 -177.09375 24.050781 -182.929688 28.21875 -186.828125 C 32.382812 -190.722656 38.265625 -193.128906 45.859375 -194.046875 C 53.460938 -194.972656 63.566406 -195.4375 76.171875 -195.4375 C 76.359375 -195.4375 78.351562 -195.4375 82.15625 -195.4375 C 85.957031 -195.4375 90.546875 -195.390625 95.921875 -195.296875 C 101.296875 -195.210938 106.898438 -195.078125 112.734375 -194.890625 C 118.578125 -194.703125 123.441406 -194.515625 127.328125 -194.328125 C 131.410156 -193.960938 134.703125 -193.453125 137.203125 -192.796875 C 139.703125 -192.148438 141.597656 -191.316406 142.890625 -190.296875 C 144.191406 -189.273438 145.023438 -188.070312 145.390625 -186.6875 C 145.765625 -185.300781 145.953125 -183.769531 145.953125 -182.09375 C 145.953125 -177.832031 144.75 -174.726562 142.34375 -172.78125 C 139.9375 -170.84375 135.023438 -169.59375 127.609375 -169.03125 C 123.898438 -168.664062 118.476562 -168.4375 111.34375 -168.34375 C 104.207031 -168.25 96.929688 -168.203125 89.515625 -168.203125 C 82.109375 -168.203125 75.4375 -168.15625 69.5 -168.0625 C 63.570312 -167.96875 59.867188 -167.921875 58.390625 -167.921875 C 53.566406 -167.734375 50.179688 -166.664062 48.234375 -164.71875 C 46.285156 -162.78125 45.3125 -158.195312 45.3125 -150.96875 C 45.3125 -149.289062 45.453125 -145.253906 45.734375 -138.859375 C 46.015625 -132.472656 46.15625 -123.535156 46.15625 -112.046875 L 69.21875 -112.046875 C 79.039062 -112.046875 87.054688 -111.90625 93.265625 -111.625 C 99.484375 -111.34375 104.304688 -110.738281 107.734375 -109.8125 C 111.160156 -108.882812 113.519531 -107.398438 114.8125 -105.359375 C 116.113281 -103.328125 116.765625 -100.644531 116.765625 -97.3125 C 116.765625 -95.632812 116.625 -94.101562 116.34375 -92.71875 C 116.070312 -91.332031 115.285156 -90.128906 113.984375 -89.109375 C 112.691406 -88.085938 110.835938 -87.25 108.421875 -86.59375 C 106.015625 -85.945312 102.585938 -85.441406 98.140625 -85.078125 C 92.765625 -84.703125 87.710938 -84.46875 82.984375 -84.375 C 78.253906 -84.28125 73.578125 -84.234375 68.953125 -84.234375 L 45.59375 -84.234375 C 45.59375 -81.453125 45.59375 -78.113281 45.59375 -74.21875 C 45.59375 -70.332031 45.59375 -66.347656 45.59375 -62.265625 C 45.59375 -58.191406 45.640625 -54.207031 45.734375 -50.3125 C 45.828125 -46.425781 45.96875 -43.28125 46.15625 -40.875 C 46.332031 -37.90625 46.742188 -35.398438 47.390625 -33.359375 C 48.046875 -31.316406 49.253906 -29.644531 51.015625 -28.34375 C 52.773438 -27.050781 55.367188 -26.128906 58.796875 -25.578125 C 62.222656 -25.023438 66.8125 -24.75 72.5625 -24.75 L 132.328125 -24.75 C 138.816406 -24.75 142.894531 -23.539062 144.5625 -21.125 C 146.226562 -18.71875 147.0625 -15.476562 147.0625 -11.40625 C 147.0625 -8.0625 146.320312 -5.507812 144.84375 -3.75 C 143.363281 -1.988281 139.796875 -0.691406 134.140625 0.140625 C 128.484375 0.972656 120.046875 1.484375 108.828125 1.671875 C 97.617188 1.859375 82.191406 1.953125 62.546875 1.953125 C 54.210938 1.953125 47.359375 1.210938 41.984375 -0.265625 C 36.609375 -1.753906 32.25 -4.257812 28.90625 -7.78125 C 25.570312 -11.300781 23.117188 -15.890625 21.546875 -21.546875 C 19.972656 -27.203125 18.90625 -34.109375 18.34375 -42.265625 Z M 18.34375 -42.265625 "/></g></g></g></g></g></g><g clip-path="url(#0b2b82150a)"><g clip-path="url(#a36e927d90)"><g transform="matrix(1, 0, 0, 1, 223, 85)"><g clip-path="url(#21342274d1)"><g clip-path="url(#ece19152ad)"><g clip-path="url(#f74a6f2d0c)"><path fill="#ffffff" d="M 0.941406 0.230469 L 37.484375 0.230469 L 37.484375 36.773438 L 0.941406 36.773438 Z M 0.941406 0.230469 " fill-opacity="1" fill-rule="nonzero"/></g></g></g></g></g></g><g clip-path="url(#09968e6afd)"><g clip-path="url(#e4b02bbc2d)"><g transform="matrix(1, 0, 0, 1, 370, 85)"><g clip-path="url(#cfb59949d5)"><g clip-path="url(#67d64552bd)"><g clip-path="url(#f67b4865b5)"><path fill="#ffffff" d="M 0.109375 0.230469 L 36.648438 0.230469 L 36.648438 36.773438 L 0.109375 36.773438 Z M 0.109375 0.230469 " fill-opacity="1" fill-rule="nonzero"/></g></g></g></g></g></g></g></g></svg>